<svg xmlns="http://www.w3.org/2000/svg" version="1.1" xmlns:xlink="http://www.w3.org/1999/xlink" xmlns:svgjs="http://svgjs.dev/svgjs" width="1000" height="85" viewBox="0 0 1000 85"><g transform="matrix(1,0,0,1,-0.6060606060606801,-0.1654995103619683)"><svg viewBox="0 0 396 34" data-background-color="#ffffff" preserveAspectRatio="xMidYMid meet" height="85" width="1000" xmlns="http://www.w3.org/2000/svg" xmlns:xlink="http://www.w3.org/1999/xlink"><g id="tight-bounds" transform="matrix(1,0,0,1,0.24000000000003752,0.06619980414478732)"><svg viewBox="0 0 395.5199999999999 33.867600391710425" height="33.867600391710425" width="395.5199999999999"><g><svg viewBox="0 0 439.59130883227505 37.64133996561605" height="33.867600391710425" width="395.5199999999999"><g transform="matrix(1,0,0,1,0,5.202240183381091)"><svg viewBox="0 0 395.52 27.236859598853865" height="27.236859598853865" width="395.52"><g id="textblocktransform"><svg viewBox="0 0 395.52 27.236859598853865" height="27.236859598853865" width="395.52" id="textblock"><g><svg viewBox="0 0 395.52 27.236859598853865" height="27.236859598853865" width="395.52"><g transform="matrix(1,0,0,1,0,0)"><svg width="395.52" viewBox="4.349999904632568 -35.650001525878906 523.4600219726562 36.05000305175781" height="27.236859598853865" data-palette-color="#97978d"><path d="M26.1 0L4.35 0 4.35-35.25 8.45-35.25 8.45-3.5 26.1-3.5 26.1 0ZM44.3 0.4Q39.4 0.4 35.77-1.8 32.15-4 30.2-8.05 28.25-12.1 28.25-17.6L28.25-17.6Q28.25-23.15 30.17-27.23 32.1-31.3 35.72-33.48 39.35-35.65 44.3-35.65L44.3-35.65Q49.25-35.65 52.87-33.48 56.5-31.3 58.42-27.23 60.35-23.15 60.35-17.65L60.35-17.65Q60.35-12.15 58.4-8.08 56.45-4 52.82-1.8 49.2 0.4 44.3 0.4L44.3 0.4ZM44.3-3.1Q49.9-3.1 53.02-6.88 56.15-10.65 56.15-17.65L56.15-17.65Q56.15-24.65 53.05-28.4 49.95-32.15 44.3-32.15L44.3-32.15Q38.7-32.15 35.57-28.38 32.45-24.6 32.45-17.65L32.45-17.65Q32.45-10.7 35.57-6.9 38.7-3.1 44.3-3.1L44.3-3.1ZM82.8 0.4Q77.8 0.4 74.09-1.78 70.4-3.95 68.42-8.03 66.45-12.1 66.45-17.65L66.45-17.65Q66.45-23.2 68.42-27.25 70.4-31.3 74.09-33.48 77.8-35.65 82.8-35.65L82.8-35.65Q86.45-35.65 89.5-34.52 92.55-33.4 94.8-31.2L94.8-31.2 93.25-28.05Q90.7-30.2 88.25-31.15 85.8-32.1 82.84-32.1L82.84-32.1Q77.05-32.1 73.87-28.33 70.7-24.55 70.7-17.65L70.7-17.65Q70.7-10.7 73.87-6.93 77.05-3.15 82.84-3.15L82.84-3.15Q85.8-3.15 88.25-4.1 90.7-5.05 93.25-7.2L93.25-7.2 94.8-4.05Q92.55-1.85 89.5-0.73 86.45 0.4 82.8 0.4L82.8 0.4ZM131.84 0L127.69 0 123.79-9.05 105.39-9.05 101.49 0 97.29 0 112.79-35.25 116.34-35.25 131.84 0ZM114.59-30.5L106.84-12.45 122.34-12.45 114.59-30.5ZM158.84 0L137.09 0 137.09-35.25 141.19-35.25 141.19-3.5 158.84-3.5 158.84 0ZM181.04 0L176.99 0 176.99-35.25 198.79-35.25 198.79-31.8 181.04-31.8 181.04-19.65 197.79-19.65 197.79-16.2 181.04-16.2 181.04 0ZM218.78 0.4Q213.88 0.4 210.26-1.8 206.63-4 204.68-8.05 202.73-12.1 202.73-17.6L202.73-17.6Q202.73-23.15 204.66-27.23 206.58-31.3 210.21-33.48 213.83-35.65 218.78-35.65L218.78-35.65Q223.73-35.65 227.36-33.48 230.98-31.3 232.91-27.23 234.83-23.15 234.83-17.65L234.83-17.65Q234.83-12.15 232.88-8.08 230.93-4 227.31-1.8 223.68 0.4 218.78 0.4L218.78 0.4ZM218.78-3.1Q224.38-3.1 227.51-6.88 230.63-10.65 230.63-17.65L230.63-17.65Q230.63-24.65 227.53-28.4 224.43-32.15 218.78-32.15L218.78-32.15Q213.18-32.15 210.06-28.38 206.93-24.6 206.93-17.65L206.93-17.65Q206.93-10.7 210.06-6.9 213.18-3.1 218.78-3.1L218.78-3.1ZM256.98 0.4Q252.08 0.4 248.45-1.8 244.83-4 242.88-8.05 240.93-12.1 240.93-17.6L240.93-17.6Q240.93-23.15 242.85-27.23 244.78-31.3 248.41-33.48 252.03-35.65 256.98-35.65L256.98-35.65Q261.93-35.65 265.56-33.48 269.18-31.3 271.11-27.23 273.03-23.15 273.03-17.65L273.03-17.65Q273.03-12.15 271.08-8.08 269.13-4 265.5-1.8 261.88 0.4 256.98 0.4L256.98 0.4ZM256.98-3.1Q262.58-3.1 265.7-6.88 268.83-10.65 268.83-17.65L268.83-17.65Q268.83-24.65 265.73-28.4 262.63-32.15 256.98-32.15L256.98-32.15Q251.38-32.15 248.25-28.38 245.13-24.6 245.13-17.65L245.13-17.65Q245.13-10.7 248.25-6.9 251.38-3.1 256.98-3.1L256.98-3.1ZM280.43 0L280.43-35.25 292.28-35.25Q300.73-35.25 305.35-30.68 309.98-26.1 309.98-17.65L309.98-17.65Q309.98-9.2 305.35-4.6 300.73 0 292.28 0L292.28 0 280.43 0ZM284.53-3.5L292.03-3.5Q305.73-3.5 305.73-17.65L305.73-17.65Q305.73-31.75 292.03-31.75L292.03-31.75 284.53-31.75 284.53-3.5ZM347.02-9.7L360.22-35.25 363.57-35.25 363.57 0 359.82 0 359.87-27.3 348.42-5.6 345.52-5.6 334.02-27.1 334.07 0 330.27 0 330.27-35.25 333.67-35.25 347.02-9.7ZM403.42 0L399.27 0 395.37-9.05 376.97-9.05 373.07 0 368.87 0 384.37-35.25 387.92-35.25 403.42 0ZM386.17-30.5L378.42-12.45 393.92-12.45 386.17-30.5ZM430.27-11.5L436.42 0 431.92 0 425.92-11.3Q424.82-13.35 423.34-14.13 421.87-14.9 419.32-14.9L419.32-14.9 412.72-14.9 412.72 0 408.67 0 408.67-35.25 423.17-35.25Q428.92-35.25 431.94-32.7 434.97-30.15 434.97-25.2L434.97-25.2Q434.97-21.1 432.64-18.57 430.32-16.05 426.02-15.4L426.02-15.4Q427.37-15 428.39-14.05 429.42-13.1 430.27-11.5L430.27-11.5ZM412.72-18.3L422.82-18.3Q426.92-18.3 428.94-20 430.97-21.7 430.97-25.15L430.97-25.15Q430.97-28.55 428.97-30.2 426.97-31.85 422.82-31.85L422.82-31.85 412.72-31.85 412.72-18.3ZM451.17-18.1L470.51 0 465.22 0 447.06-16.75 447.06 0 442.97 0 442.97-35.25 447.06-35.25 447.06-19.05 464.37-35.25 469.56-35.25 451.17-18.1ZM496.66 0L474.36 0 474.36-35.25 496.66-35.25 496.66-31.85 478.41-31.85 478.41-19.6 495.66-19.6 495.66-16.2 478.41-16.2 478.41-3.4 496.66-3.4 496.66 0ZM515.51 0L511.36 0 511.36-31.75 499.11-31.75 499.11-35.25 527.81-35.25 527.81-31.75 515.51-31.75 515.51 0Z" opacity="1" transform="matrix(1,0,0,1,0,0)" fill="#97978d" class="wordmark-text-0" data-fill-palette-color="primary" id="text-0"></path></svg></g></svg></g></svg></g></svg></g><g transform="matrix(1,0,0,1,401.949968866659,0)"><svg viewBox="0 0 37.64133996561605 37.64133996561605" height="37.64133996561605" width="37.64133996561605"><g data-palette-color="#97978d"><rect width="10.288632923935053" height="37.64133996561605" fill="#97978d" stroke="transparent" data-fill-palette-color="accent" x="0" fill-opacity="1"></rect><rect width="10.288632923935053" height="37.64133996561605" fill="#97978d" stroke="transparent" data-fill-palette-color="accent" x="12.547113321872015" fill-opacity="0.75"></rect><rect width="10.288632923935053" height="37.64133996561605" fill="#97978d" stroke="transparent" data-fill-palette-color="accent" x="25.09422664374403" fill-opacity="0.5"></rect></g></svg></g></svg></g><defs></defs></svg><rect width="395.5199999999999" height="33.867600391710425" fill="none" stroke="none" visibility="hidden"></rect></g></svg></g></svg>